<?xml version="1.0"?>
<svg xmlns="http://www.w3.org/2000/svg" xmlns:xlink="http://www.w3.org/1999/xlink" version="1.1" viewBox="0 0 252 252" width="96px" height="96px"><g fill="none" fill-rule="nonzero" stroke="none" stroke-width="1" stroke-linecap="butt" stroke-linejoin="miter" stroke-miterlimit="10" stroke-dasharray="" stroke-dashoffset="0" font-family="none" font-weight="none" font-size="none" text-anchor="none" style="mix-blend-mode: normal"><path d="M0,252v-252h252v252z" fill="none"/><g id="Layer_1" fill="#ffffff"><g><path d="M114.87525,32.214l-22.65375,-5.1135c-18.48,-4.17375 -36.83925,7.4235 -41.013,25.9035l-5.16075,22.84275c14.868,-23.60925 39.8265,-40.20975 68.8275,-43.63275z"/><path d="M32.214,137.12475l-5.1135,22.65375c-4.17375,18.48 7.4235,36.83925 25.9035,41.013l22.84275,5.16075c-23.60925,-14.87325 -40.20975,-39.8265 -43.63275,-68.8275z"/><path d="M198.996,51.2085l-22.84275,-5.16075c23.60925,14.868 40.20975,39.8265 43.63275,68.82225l5.1135,-22.65375c4.17375,-18.4695 -7.4235,-36.834 -25.9035,-41.00775z"/><path d="M137.12475,219.786l22.65375,5.1135c18.48,4.17375 36.83925,-7.4235 41.013,-25.9035l5.16075,-22.84275c-14.868,23.60925 -39.8265,40.20975 -68.8275,43.63275z"/></g><path d="M126,42c-46.39425,0 -84,37.60575 -84,84c0,46.39425 37.60575,84 84,84c46.39425,0 84,-37.60575 84,-84c0,-46.39425 -37.60575,-84 -84,-84zM105,68.25c11.59725,0 21,9.40275 21,21c0,11.59725 -9.40275,21 -21,21c-11.59725,0 -21,-9.40275 -21,-21c0,-11.59725 9.40275,-21 21,-21zM89.25,168c-11.59725,0 -21,-9.40275 -21,-21c0,-11.59725 9.40275,-21 21,-21c11.59725,0 21,9.40275 21,21c0,11.59725 -9.40275,21 -21,21zM115.5,126c0,-5.80125 4.69875,-10.5 10.5,-10.5c5.80125,0 10.5,4.69875 10.5,10.5c0,5.80125 -4.69875,10.5 -10.5,10.5c-5.80125,0 -10.5,-4.69875 -10.5,-10.5zM147,183.75c-11.59725,0 -21,-9.40275 -21,-21c0,-11.59725 9.40275,-21 21,-21c11.59725,0 21,9.40275 21,21c0,11.59725 -9.40275,21 -21,21zM162.75,126c-11.59725,0 -21,-9.40275 -21,-21c0,-11.59725 9.40275,-21 21,-21c11.59725,0 21,9.40275 21,21c0,11.59725 -9.40275,21 -21,21z"/></g></g></svg>
