<svg xmlns="http://www.w3.org/2000/svg" width="76" height="101" viewBox="0 0 76 101">
    <g fill="#F4F4F4" fill-rule="evenodd">
        <path d="M15.02 70.008c-.33 1.228.33 2.456 1.432 2.791 6.499 2.01 12.557 3.685 21.589 3.685 8.701 0 14.539-1.563 20.707-3.35 1.211-.335 1.872-1.563 1.542-2.791-.33-1.228-1.542-1.898-2.754-1.563-6.058 1.786-11.345 3.126-19.385 3.126-8.481 0-13.989-1.451-20.267-3.461-1.322-.335-2.533.335-2.864 1.563z"/>
        <path d="M11.275 36.4V52.7c0 5.137-1.762 10.05-5.066 14.069l-4.406 5.583c-.22.223-.33.558-.44.781-.551.447-.882 1.005-.882 1.787 0 6.476 11.235 10.495 24.893 12.059-.11.223-.11.446-.11.781.11 6.923 5.838 12.729 12.777 12.729 6.939 0 12.666-5.806 12.666-12.84 0-.224 0-.559-.11-.782 13.658-1.563 24.893-5.583 24.893-12.059 0-.67-.33-1.34-.881-1.786-.11-.335-.22-.559-.44-.782l-4.407-5.583c-3.194-3.908-4.956-8.932-4.956-13.957V36.4c0-11.39-7.16-21.103-17.183-24.788.22-.335.33-.781.33-1.228 0-5.583-4.405-10.049-9.912-10.049-5.508 0-9.913 4.466-9.913 10.049 0 .447.11.893.33 1.228C18.435 15.185 11.275 25.011 11.275 36.4zm35.027 51.25c0 4.577-3.745 8.374-8.261 8.374-4.516 0-8.261-3.797-8.261-8.374v-.335a102.157 102.157 0 0 0 16.522 0v.335zM32.533 10.272c0-3.126 2.424-5.582 5.508-5.582s5.507 2.456 5.507 5.582v.224c-1.542-.335-3.084-.447-4.736-.447-.33 0-.551.112-.771.112-.22-.112-.551-.112-.771-.112-1.653 0-3.195.112-4.737.447v-.224zm4.737 4.243c.33 0 .55-.111.77-.111.22.111.551.111.772.111 11.895 0 21.588 9.826 21.588 21.885V52.7c0 6.141 2.093 12.17 5.948 16.86l4.406 5.583.22.223c-1.101 2.903-12.667 7.816-32.933 7.816-20.377 0-31.832-4.913-32.934-7.816l.22-.223 4.406-5.583c3.855-4.69 6.058-10.719 6.058-16.86V36.4c-.11-12.06 9.583-21.885 21.479-21.885z"/>
    </g>
</svg>
